%TF.GenerationSoftware,KiCad,Pcbnew,(2017-10-23 revision a562525)-master*%
%TF.CreationDate,2017-11-11T10:42:01+01:00*%
%TF.ProjectId,USB-Hub V2.0,5553422D4875622056322E302E6B6963,a*%
%TF.SameCoordinates,Original*%
%TF.FileFunction,Copper,L1,Top,Signal*%
%TF.FilePolarity,Positive*%
%FSLAX46Y46*%
G04 Gerber Fmt 4.6, Leading zero omitted, Abs format (unit mm)*
G04 Created by KiCad (PCBNEW (2017-10-23 revision a562525)-master) date Saturday, 11. November 2017 'u42' 10:42:01*
%MOMM*%
%LPD*%
G01*
G04 APERTURE LIST*
%TA.AperFunction,SMDPad,CuDef*%
%ADD10R,0.360000X1.270000*%
%TD*%
%TA.AperFunction,ComponentPad*%
%ADD11C,1.500000*%
%TD*%
%TA.AperFunction,ComponentPad*%
%ADD12C,4.000000*%
%TD*%
%TA.AperFunction,ComponentPad*%
%ADD13C,1.524000*%
%TD*%
%TA.AperFunction,SMDPad,CuDef*%
%ADD14R,1.500000X1.300000*%
%TD*%
%TA.AperFunction,SMDPad,CuDef*%
%ADD15R,1.300000X1.500000*%
%TD*%
%TA.AperFunction,SMDPad,CuDef*%
%ADD16R,2.000000X1.700000*%
%TD*%
%TA.AperFunction,SMDPad,CuDef*%
%ADD17R,1.100000X0.600000*%
%TD*%
%TA.AperFunction,ComponentPad*%
%ADD18C,6.400000*%
%TD*%
%TA.AperFunction,SMDPad,CuDef*%
%ADD19R,0.800000X0.900000*%
%TD*%
%TA.AperFunction,BGAPad,CuDef*%
%ADD20C,3.000000*%
%TD*%
%TA.AperFunction,SMDPad,CuDef*%
%ADD21R,0.600000X1.100000*%
%TD*%
%TA.AperFunction,SMDPad,CuDef*%
%ADD22R,2.100000X1.800000*%
%TD*%
%TA.AperFunction,ViaPad*%
%ADD23C,0.800000*%
%TD*%
%TA.AperFunction,ViaPad*%
%ADD24C,0.600000*%
%TD*%
%TA.AperFunction,Conductor*%
%ADD25C,0.750000*%
%TD*%
%TA.AperFunction,Conductor*%
%ADD26C,0.350000*%
%TD*%
%TA.AperFunction,Conductor*%
%ADD27C,1.000000*%
%TD*%
%TA.AperFunction,Conductor*%
%ADD28C,0.125000*%
%TD*%
G04 APERTURE END LIST*
D10*
%TO.P,IC1,1*%
%TO.N,GND*%
X140127500Y-92410000D03*
%TO.P,IC1,2*%
%TO.N,OSC1_out*%
X139492500Y-92410000D03*
%TO.P,IC1,3*%
%TO.N,OSC1_in*%
X138857500Y-92410000D03*
%TO.P,IC1,4*%
%TO.N,/DM4_1-*%
X138222500Y-92410000D03*
%TO.P,IC1,5*%
%TO.N,/DM4_1+*%
X137587500Y-92410000D03*
%TO.P,IC1,6*%
%TO.N,/DM3_1-*%
X136952500Y-92410000D03*
%TO.P,IC1,7*%
%TO.N,/DM3_1+*%
X136317500Y-92410000D03*
%TO.P,IC1,8*%
%TO.N,/DM2_1-*%
X135682500Y-92410000D03*
%TO.P,IC1,9*%
%TO.N,/DM2_1+*%
X135047500Y-92410000D03*
%TO.P,IC1,10*%
%TO.N,/DM1_1-*%
X134412500Y-92410000D03*
%TO.P,IC1,11*%
%TO.N,/DM1_1+*%
X133777500Y-92410000D03*
%TO.P,IC1,12*%
%TO.N,Net-(IC1-Pad12)*%
X133142500Y-92410000D03*
%TO.P,IC1,13*%
%TO.N,Net-(IC1-Pad13)*%
X132507500Y-92410000D03*
%TO.P,IC1,14*%
%TO.N,Net-(IC1-Pad14)*%
X131872500Y-92410000D03*
%TO.P,IC1,15*%
%TO.N,USB_D_3-*%
X131872500Y-97590000D03*
%TO.P,IC1,16*%
%TO.N,USB_D_3+*%
X132507500Y-97590000D03*
%TO.P,IC1,17*%
%TO.N,Net-(IC1-Pad17)*%
X133142500Y-97590000D03*
%TO.P,IC1,18*%
%TO.N,VBUS_SENSE*%
X133777500Y-97590000D03*
%TO.P,IC1,19*%
%TO.N,Net-(IC1-Pad19)*%
X134412500Y-97590000D03*
%TO.P,IC1,20*%
%TO.N,VCC_5V*%
X135047500Y-97590000D03*
%TO.P,IC1,21*%
%TO.N,VCC33*%
X135682500Y-97590000D03*
%TO.P,IC1,22*%
%TO.N,LED_CTL*%
X136317500Y-97590000D03*
%TO.P,IC1,23*%
%TO.N,LED1*%
X136952500Y-97590000D03*
%TO.P,IC1,24*%
%TO.N,LED2*%
X137587500Y-97590000D03*
%TO.P,IC1,25*%
%TO.N,Net-(IC1-Pad25)*%
X138222500Y-97590000D03*
%TO.P,IC1,26*%
%TO.N,OVC*%
X138857500Y-97590000D03*
%TO.P,IC1,27*%
%TO.N,Net-(IC1-Pad27)*%
X139492500Y-97590000D03*
%TO.P,IC1,28*%
%TO.N,Net-(IC1-Pad28)*%
X140127500Y-97590000D03*
%TD*%
D11*
%TO.P,J1,1*%
%TO.N,VBUS_UP_P*%
X96975500Y-98786000D03*
%TO.P,J1,2*%
%TO.N,/USB_D_1-*%
X96975500Y-96286000D03*
%TO.P,J1,4*%
%TO.N,GND*%
X94975500Y-98806000D03*
%TO.P,J1,3*%
%TO.N,/USB_D_1+*%
X94975500Y-96286000D03*
D12*
%TO.P,J1,4*%
%TO.N,GND*%
X92265500Y-103556000D03*
X92265500Y-91516000D03*
%TD*%
%TO.P,J6,4*%
%TO.N,GND*%
X165070000Y-73000000D03*
X151930000Y-73000000D03*
D13*
%TO.P,J6,1*%
%TO.N,Net-(C10-Pad1)*%
X162000000Y-75700000D03*
%TO.P,J6,2*%
%TO.N,/DM4_3-*%
X159500000Y-75700000D03*
%TO.P,J6,3*%
%TO.N,/DM4_3+*%
X157500000Y-75700000D03*
%TO.P,J6,4*%
%TO.N,GND*%
X155000000Y-75700000D03*
%TD*%
D12*
%TO.P,J7,4*%
%TO.N,GND*%
X146070000Y-73000000D03*
X132930000Y-73000000D03*
D13*
%TO.P,J7,1*%
%TO.N,Net-(C11-Pad1)*%
X143000000Y-75700000D03*
%TO.P,J7,2*%
%TO.N,/DM3_3-*%
X140500000Y-75700000D03*
%TO.P,J7,3*%
%TO.N,/DM3_3+*%
X138500000Y-75700000D03*
%TO.P,J7,4*%
%TO.N,GND*%
X136000000Y-75700000D03*
%TD*%
D12*
%TO.P,J8,4*%
%TO.N,GND*%
X127070000Y-73000000D03*
X113930000Y-73000000D03*
D13*
%TO.P,J8,1*%
%TO.N,Net-(C12-Pad1)*%
X124000000Y-75700000D03*
%TO.P,J8,2*%
%TO.N,/DM2_3-*%
X121500000Y-75700000D03*
%TO.P,J8,3*%
%TO.N,/DM2_3+*%
X119500000Y-75700000D03*
%TO.P,J8,4*%
%TO.N,GND*%
X117000000Y-75700000D03*
%TD*%
D12*
%TO.P,J9,4*%
%TO.N,GND*%
X108070000Y-73000000D03*
X94930000Y-73000000D03*
D13*
%TO.P,J9,1*%
%TO.N,Net-(C13-Pad1)*%
X105000000Y-75700000D03*
%TO.P,J9,2*%
%TO.N,/DM1_3-*%
X102500000Y-75700000D03*
%TO.P,J9,3*%
%TO.N,/DM1_3+*%
X100500000Y-75700000D03*
%TO.P,J9,4*%
%TO.N,GND*%
X98000000Y-75700000D03*
%TD*%
D14*
%TO.P,C1,2*%
%TO.N,Net-(C1-Pad2)*%
X103140500Y-106553000D03*
%TO.P,C1,1*%
%TO.N,VBUS_UP_P*%
X100440500Y-106553000D03*
%TD*%
D15*
%TO.P,C2,1*%
%TO.N,VCC_5V*%
X108521500Y-111586000D03*
%TO.P,C2,2*%
%TO.N,GND*%
X108521500Y-108886000D03*
%TD*%
D14*
%TO.P,C3,2*%
%TO.N,GND*%
X109013000Y-105283000D03*
%TO.P,C3,1*%
%TO.N,VBUS_SENSE*%
X111713000Y-105283000D03*
%TD*%
%TO.P,C4,1*%
%TO.N,GND*%
X118334800Y-109321600D03*
%TO.P,C4,2*%
%TO.N,VCC33*%
X121034800Y-109321600D03*
%TD*%
%TO.P,C5,2*%
%TO.N,GND*%
X118334800Y-107137200D03*
%TO.P,C5,1*%
%TO.N,VCC33*%
X121034800Y-107137200D03*
%TD*%
D16*
%TO.P,F1,2*%
%TO.N,Net-(F1-Pad2)*%
X127222000Y-111633000D03*
%TO.P,F1,1*%
%TO.N,VCC_5V*%
X123222000Y-111633000D03*
%TD*%
D17*
%TO.P,FL1,1*%
%TO.N,/USB_D_2+*%
X118665000Y-98925000D03*
%TO.P,FL1,2*%
%TO.N,USB_D_3+*%
X121365000Y-98925000D03*
%TO.P,FL1,3*%
%TO.N,USB_D_3-*%
X121365000Y-97925000D03*
%TO.P,FL1,4*%
%TO.N,/USB_D_2-*%
X118665000Y-97925000D03*
%TD*%
%TO.P,FL2,1*%
%TO.N,/DM4_1-*%
X149018000Y-86961600D03*
%TO.P,FL2,2*%
%TO.N,/DM4_2-*%
X151718000Y-86961600D03*
%TO.P,FL2,3*%
%TO.N,/DM4_2+*%
X151718000Y-85961600D03*
%TO.P,FL2,4*%
%TO.N,/DM4_1+*%
X149018000Y-85961600D03*
%TD*%
%TO.P,FL3,4*%
%TO.N,/DM3_1+*%
X142769600Y-83828000D03*
%TO.P,FL3,3*%
%TO.N,/DM3_2+*%
X145469600Y-83828000D03*
%TO.P,FL3,2*%
%TO.N,/DM3_2-*%
X145469600Y-84828000D03*
%TO.P,FL3,1*%
%TO.N,/DM3_1-*%
X142769600Y-84828000D03*
%TD*%
%TO.P,FL4,1*%
%TO.N,/DM2_1-*%
X129264400Y-87180800D03*
%TO.P,FL4,2*%
%TO.N,/DM2_2-*%
X126564400Y-87180800D03*
%TO.P,FL4,3*%
%TO.N,/DM2_2+*%
X126564400Y-88180800D03*
%TO.P,FL4,4*%
%TO.N,/DM2_1+*%
X129264400Y-88180800D03*
%TD*%
%TO.P,FL5,4*%
%TO.N,/DM1_1+*%
X107522000Y-93057600D03*
%TO.P,FL5,3*%
%TO.N,/DM1_2+*%
X104822000Y-93057600D03*
%TO.P,FL5,2*%
%TO.N,/DM1_2-*%
X104822000Y-92057600D03*
%TO.P,FL5,1*%
%TO.N,/DM1_1-*%
X107522000Y-92057600D03*
%TD*%
D18*
%TO.P,J2,1*%
%TO.N,Net-(J2-Pad1)*%
X171000000Y-69000000D03*
%TD*%
%TO.P,J3,1*%
%TO.N,Net-(J3-Pad1)*%
X89000000Y-69000000D03*
%TD*%
%TO.P,J4,1*%
%TO.N,Net-(J4-Pad1)*%
X171000000Y-111000000D03*
%TD*%
%TO.P,J5,1*%
%TO.N,Net-(J5-Pad1)*%
X89000000Y-111000000D03*
%TD*%
D19*
%TO.P,Q1,3*%
%TO.N,VCC_5V*%
X101790500Y-111617000D03*
%TO.P,Q1,2*%
%TO.N,VBUS_UP_P*%
X100840500Y-109617000D03*
%TO.P,Q1,1*%
%TO.N,Net-(C1-Pad2)*%
X102740500Y-109617000D03*
%TD*%
D15*
%TO.P,R1,2*%
%TO.N,LED1*%
X161156000Y-102582000D03*
%TO.P,R1,1*%
%TO.N,Net-(D2-Pad1)*%
X161156000Y-105282000D03*
%TD*%
%TO.P,R2,1*%
%TO.N,Net-(D4-Pad1)*%
X153156000Y-105282000D03*
%TO.P,R2,2*%
%TO.N,LED2*%
X153156000Y-102582000D03*
%TD*%
D14*
%TO.P,R3,2*%
%TO.N,LED_CTL*%
X147831800Y-110769400D03*
%TO.P,R3,1*%
%TO.N,Net-(D1-Pad2)*%
X145131800Y-110769400D03*
%TD*%
%TO.P,R4,2*%
%TO.N,Net-(C1-Pad2)*%
X103140500Y-103251000D03*
%TO.P,R4,1*%
%TO.N,GND*%
X100440500Y-103251000D03*
%TD*%
D15*
%TO.P,R5,1*%
%TO.N,VBUS_SENSE*%
X112014000Y-108886000D03*
%TO.P,R5,2*%
%TO.N,VCC_5V*%
X112014000Y-111586000D03*
%TD*%
D14*
%TO.P,R6,1*%
%TO.N,Net-(F1-Pad2)*%
X131174500Y-111633000D03*
%TO.P,R6,2*%
%TO.N,OVC*%
X133874500Y-111633000D03*
%TD*%
%TO.P,R7,2*%
%TO.N,GND*%
X109013000Y-102044500D03*
%TO.P,R7,1*%
%TO.N,VBUS_SENSE*%
X111713000Y-102044500D03*
%TD*%
D15*
%TO.P,R8,1*%
%TO.N,Net-(IC1-Pad17)*%
X130302000Y-103933000D03*
%TO.P,R8,2*%
%TO.N,VCC33*%
X130302000Y-106633000D03*
%TD*%
%TO.P,R9,2*%
%TO.N,GND*%
X114350800Y-91207600D03*
%TO.P,R9,1*%
%TO.N,Net-(IC1-Pad19)*%
X114350800Y-93907600D03*
%TD*%
%TO.P,R10,1*%
%TO.N,Net-(IC1-Pad14)*%
X117043200Y-93907600D03*
%TO.P,R10,2*%
%TO.N,GND*%
X117043200Y-91207600D03*
%TD*%
D20*
%TO.P,TP1,1*%
%TO.N,VCC_5V*%
X94996000Y-111569500D03*
%TD*%
%TO.P,TP2,1*%
%TO.N,OVC*%
X136042400Y-108458000D03*
%TD*%
%TO.P,TP3,1*%
%TO.N,GND*%
X89865200Y-84683600D03*
%TD*%
%TO.P,TP4,1*%
%TO.N,VCC33*%
X144373600Y-103682800D03*
%TD*%
%TO.P,TP5,1*%
%TO.N,Net-(IC1-Pad17)*%
X124269500Y-102362000D03*
%TD*%
D17*
%TO.P,U1,6*%
%TO.N,/USB_D_2-*%
X109200000Y-97475000D03*
%TO.P,U1,5*%
%TO.N,VCC_5V*%
X109200000Y-98425000D03*
%TO.P,U1,4*%
%TO.N,/USB_D_2+*%
X109200000Y-99375000D03*
%TO.P,U1,3*%
%TO.N,/USB_D_1+*%
X106700000Y-99375000D03*
%TO.P,U1,2*%
%TO.N,GND*%
X106700000Y-98425000D03*
%TO.P,U1,1*%
%TO.N,/USB_D_1-*%
X106700000Y-97475000D03*
%TD*%
D21*
%TO.P,U2,1*%
%TO.N,/DM4_2+*%
X157546000Y-87711600D03*
%TO.P,U2,2*%
%TO.N,GND*%
X158496000Y-87711600D03*
%TO.P,U2,3*%
%TO.N,/DM4_2-*%
X159446000Y-87711600D03*
%TO.P,U2,4*%
%TO.N,/DM4_3-*%
X159446000Y-85211600D03*
%TO.P,U2,5*%
%TO.N,VCC_5V*%
X158496000Y-85211600D03*
%TO.P,U2,6*%
%TO.N,/DM4_3+*%
X157546000Y-85211600D03*
%TD*%
D17*
%TO.P,U3,1*%
%TO.N,/DM3_2+*%
X148722400Y-81264800D03*
%TO.P,U3,2*%
%TO.N,GND*%
X148722400Y-80314800D03*
%TO.P,U3,3*%
%TO.N,/DM3_2-*%
X148722400Y-79364800D03*
%TO.P,U3,4*%
%TO.N,/DM3_3-*%
X146222400Y-79364800D03*
%TO.P,U3,5*%
%TO.N,VCC_5V*%
X146222400Y-80314800D03*
%TO.P,U3,6*%
%TO.N,/DM3_3+*%
X146222400Y-81264800D03*
%TD*%
D21*
%TO.P,U4,6*%
%TO.N,/DM2_3+*%
X119547600Y-84500400D03*
%TO.P,U4,5*%
%TO.N,VCC_5V*%
X120497600Y-84500400D03*
%TO.P,U4,4*%
%TO.N,/DM2_3-*%
X121447600Y-84500400D03*
%TO.P,U4,3*%
%TO.N,/DM2_2-*%
X121447600Y-87000400D03*
%TO.P,U4,2*%
%TO.N,GND*%
X120497600Y-87000400D03*
%TO.P,U4,1*%
%TO.N,/DM2_2+*%
X119547600Y-87000400D03*
%TD*%
%TO.P,U5,1*%
%TO.N,/DM1_2+*%
X100548400Y-88930800D03*
%TO.P,U5,2*%
%TO.N,GND*%
X101498400Y-88930800D03*
%TO.P,U5,3*%
%TO.N,/DM1_2-*%
X102448400Y-88930800D03*
%TO.P,U5,4*%
%TO.N,/DM1_3-*%
X102448400Y-86430800D03*
%TO.P,U5,5*%
%TO.N,VCC_5V*%
X101498400Y-86430800D03*
%TO.P,U5,6*%
%TO.N,/DM1_3+*%
X100548400Y-86430800D03*
%TD*%
D22*
%TO.P,Y1,4*%
%TO.N,GND*%
X148071500Y-92590000D03*
%TO.P,Y1,3*%
%TO.N,OSC1_out*%
X145171500Y-92590000D03*
%TO.P,Y1,2*%
%TO.N,GND*%
X145171500Y-90290000D03*
%TO.P,Y1,1*%
%TO.N,OSC1_in*%
X148071500Y-90290000D03*
%TD*%
D15*
%TO.P,D1,2*%
%TO.N,Net-(D1-Pad2)*%
X141902000Y-110845500D03*
%TO.P,D1,1*%
%TO.N,GND*%
X141902000Y-108145500D03*
%TD*%
%TO.P,D2,2*%
%TO.N,LED_CTL*%
X159156000Y-110845500D03*
%TO.P,D2,1*%
%TO.N,Net-(D2-Pad1)*%
X159156000Y-108145500D03*
%TD*%
%TO.P,D3,1*%
%TO.N,LED_CTL*%
X163156000Y-110845500D03*
%TO.P,D3,2*%
%TO.N,Net-(D2-Pad1)*%
X163156000Y-108145500D03*
%TD*%
%TO.P,D4,2*%
%TO.N,LED_CTL*%
X155156000Y-110874500D03*
%TO.P,D4,1*%
%TO.N,Net-(D4-Pad1)*%
X155156000Y-108174500D03*
%TD*%
%TO.P,D5,1*%
%TO.N,LED_CTL*%
X151156000Y-110845500D03*
%TO.P,D5,2*%
%TO.N,Net-(D4-Pad1)*%
X151156000Y-108145500D03*
%TD*%
D23*
%TO.N,VCC_5V*%
X142951200Y-78105000D03*
X160705800Y-85420200D03*
X118262400Y-84632800D03*
D24*
X101498400Y-84175600D03*
X114681000Y-107061000D03*
X110553500Y-98425000D03*
D23*
%TO.N,GND*%
X147574000Y-82931000D03*
X161163000Y-87376000D03*
X116332000Y-110490000D03*
D24*
X99517200Y-87630000D03*
D23*
X106730800Y-102057200D03*
D24*
X107124500Y-105283000D03*
X100457000Y-101155500D03*
X105283000Y-98425000D03*
X141922500Y-105918000D03*
X140906500Y-90297000D03*
X150558500Y-92583000D03*
D23*
%TO.N,VCC33*%
X136448800Y-102514400D03*
X128473200Y-106629200D03*
D24*
%TO.N,OVC*%
X138887200Y-100482400D03*
X138887200Y-110083600D03*
%TD*%
D25*
%TO.N,Net-(C1-Pad2)*%
X103140500Y-106553000D02*
X103140500Y-103251000D01*
X103140500Y-106553000D02*
X103140500Y-109217000D01*
X103140500Y-109217000D02*
X102740500Y-109617000D01*
%TO.N,VBUS_UP_P*%
X100440500Y-106553000D02*
X100440500Y-109217000D01*
X100440500Y-109217000D02*
X100840500Y-109617000D01*
X96975500Y-98786000D02*
X96975500Y-105462500D01*
X96975500Y-105462500D02*
X96964500Y-105473500D01*
X96964500Y-105473500D02*
X96964500Y-105727500D01*
X96964500Y-105727500D02*
X97790000Y-106553000D01*
X97790000Y-106553000D02*
X100440500Y-106553000D01*
%TO.N,VCC_5V*%
X144094200Y-78105000D02*
X142951200Y-78105000D01*
X147980400Y-78105000D02*
X144094200Y-78105000D01*
X156057600Y-85318600D02*
X156057600Y-79933800D01*
X156057600Y-79933800D02*
X154228800Y-78105000D01*
X154228800Y-78105000D02*
X147980400Y-78105000D01*
D26*
X147421600Y-78105000D02*
X147421600Y-80015600D01*
X147421600Y-80015600D02*
X147122400Y-80314800D01*
X147122400Y-80314800D02*
X146222400Y-80314800D01*
X147980400Y-78105000D02*
X147421600Y-78105000D01*
X156875601Y-86136601D02*
X156057600Y-85318600D01*
X158496000Y-86111600D02*
X158171002Y-86111600D01*
X158171002Y-86111600D02*
X158146001Y-86136601D01*
X158146001Y-86136601D02*
X156875601Y-86136601D01*
X158496000Y-85211600D02*
X158496000Y-86111600D01*
X160209000Y-86131400D02*
X160705800Y-85634600D01*
X160705800Y-85634600D02*
X160705800Y-85420200D01*
X158496000Y-86111600D02*
X158515800Y-86131400D01*
X158515800Y-86131400D02*
X158840798Y-86131400D01*
X158840798Y-86131400D02*
X158845999Y-86136601D01*
X158845999Y-86136601D02*
X160046001Y-86136601D01*
X160046001Y-86136601D02*
X160051202Y-86131400D01*
X160051202Y-86131400D02*
X160209000Y-86131400D01*
X120497600Y-84500400D02*
X120497600Y-85400400D01*
X118662399Y-85032799D02*
X118262400Y-84632800D01*
X120497600Y-85400400D02*
X120401600Y-85496400D01*
X120401600Y-85496400D02*
X119126000Y-85496400D01*
X119126000Y-85496400D02*
X118662399Y-85032799D01*
D27*
X123222000Y-111633000D02*
X123222000Y-109543600D01*
X123222000Y-109543600D02*
X123850400Y-108915200D01*
X123850400Y-108915200D02*
X131165600Y-108915200D01*
X131165600Y-108915200D02*
X135077200Y-105003600D01*
X135077200Y-105003600D02*
X135077200Y-101447600D01*
D26*
X135026400Y-101854000D02*
X135047500Y-101832900D01*
X135047500Y-101832900D02*
X135047500Y-97590000D01*
X101498400Y-86430800D02*
X101498400Y-84175600D01*
X101549200Y-86410800D02*
X101498400Y-86360000D01*
D25*
X114681000Y-111586000D02*
X123175000Y-111586000D01*
X112014000Y-111586000D02*
X114681000Y-111586000D01*
X114681000Y-111586000D02*
X114681000Y-107061000D01*
X123175000Y-111586000D02*
X123222000Y-111633000D01*
X108521500Y-111586000D02*
X112014000Y-111586000D01*
X101790500Y-111617000D02*
X108490500Y-111617000D01*
X108490500Y-111617000D02*
X108521500Y-111586000D01*
X109200000Y-98425000D02*
X110553500Y-98425000D01*
D27*
X101790500Y-111617000D02*
X95043500Y-111617000D01*
X95043500Y-111617000D02*
X94996000Y-111569500D01*
D26*
%TO.N,GND*%
X147574000Y-82397600D02*
X147574000Y-82931000D01*
X147574000Y-80641031D02*
X147574000Y-82397600D01*
X147672410Y-80542621D02*
X147574000Y-80641031D01*
X148722400Y-80314800D02*
X147900231Y-80314800D01*
X147900231Y-80314800D02*
X147672410Y-80542621D01*
X160477200Y-86690200D02*
X161163000Y-87376000D01*
X158724600Y-86690200D02*
X160477200Y-86690200D01*
X158496000Y-86918800D02*
X158724600Y-86690200D01*
X158496000Y-87711600D02*
X158496000Y-86918800D01*
D27*
X117043200Y-91258400D02*
X117043200Y-86106000D01*
X117043200Y-86106000D02*
X117043200Y-75743200D01*
D26*
X120497600Y-86156800D02*
X120416199Y-86075399D01*
X120416199Y-86075399D02*
X117073801Y-86075399D01*
X117073801Y-86075399D02*
X117043200Y-86106000D01*
X120497600Y-87000400D02*
X120497600Y-86156800D01*
D27*
X114350800Y-91207600D02*
X117043200Y-91207600D01*
D25*
X92252800Y-88674873D02*
X92252800Y-87071200D01*
X92252800Y-87071200D02*
X89865200Y-84683600D01*
X92265500Y-91516000D02*
X92265500Y-88687573D01*
X92265500Y-88687573D02*
X92252800Y-88674873D01*
X116332000Y-109824400D02*
X116332000Y-110490000D01*
X118334800Y-109321600D02*
X116834800Y-109321600D01*
X116834800Y-109321600D02*
X116332000Y-109824400D01*
X118334800Y-109321600D02*
X118334800Y-107137200D01*
D27*
X117043200Y-75743200D02*
X117000000Y-75700000D01*
D26*
X101295200Y-87630000D02*
X99517200Y-87630000D01*
X101498400Y-87833200D02*
X101295200Y-87630000D01*
X101498400Y-88030800D02*
X101498400Y-87833200D01*
X101498400Y-88930800D02*
X101498400Y-88030800D01*
D27*
X109013000Y-102044500D02*
X106743500Y-102044500D01*
X106743500Y-102044500D02*
X106730800Y-102057200D01*
D25*
X109013000Y-105283000D02*
X109013000Y-102044500D01*
X109013000Y-105283000D02*
X107124500Y-105283000D01*
X108521500Y-108886000D02*
X108521500Y-105774500D01*
X108521500Y-105774500D02*
X109013000Y-105283000D01*
X100440500Y-103251000D02*
X100440500Y-101172000D01*
X100440500Y-101172000D02*
X100457000Y-101155500D01*
X106700000Y-98425000D02*
X105283000Y-98425000D01*
X141902000Y-108082000D02*
X141902000Y-105938500D01*
X141902000Y-105938500D02*
X141922500Y-105918000D01*
D26*
X140906500Y-90297000D02*
X140127500Y-91076000D01*
X140127500Y-91076000D02*
X140127500Y-92410000D01*
D25*
X142938500Y-90297000D02*
X140906500Y-90297000D01*
X143364500Y-90297000D02*
X142938500Y-90297000D01*
X145171500Y-90290000D02*
X143371500Y-90290000D01*
X143371500Y-90290000D02*
X143364500Y-90297000D01*
X149878500Y-92583000D02*
X150558500Y-92583000D01*
X148071500Y-92590000D02*
X149871500Y-92590000D01*
X149871500Y-92590000D02*
X149878500Y-92583000D01*
%TO.N,VBUS_SENSE*%
X111713000Y-105283000D02*
X111713000Y-102044500D01*
D26*
X133794500Y-103759000D02*
X133777500Y-103742000D01*
X133777500Y-103742000D02*
X133777500Y-97590000D01*
D25*
X132270500Y-105283000D02*
X133794500Y-103759000D01*
X111713000Y-105283000D02*
X132270500Y-105283000D01*
X112014000Y-108886000D02*
X112014000Y-105584000D01*
X112014000Y-105584000D02*
X111713000Y-105283000D01*
D26*
%TO.N,VCC33*%
X136448800Y-102514400D02*
X136448800Y-101349131D01*
X136448800Y-101349131D02*
X135636000Y-100536331D01*
X135636000Y-100536331D02*
X135636000Y-97739200D01*
D25*
X136448800Y-102514400D02*
X143205200Y-102514400D01*
X143205200Y-102514400D02*
X144373600Y-103682800D01*
X121034800Y-107137200D02*
X121034800Y-109321600D01*
X128473200Y-106629200D02*
X121542800Y-106629200D01*
X121542800Y-106629200D02*
X121034800Y-107137200D01*
D27*
X130302000Y-106633000D02*
X128477000Y-106633000D01*
X128477000Y-106633000D02*
X128473200Y-106629200D01*
D25*
%TO.N,Net-(D1-Pad2)*%
X145131800Y-110769400D02*
X141914600Y-110769400D01*
X141914600Y-110769400D02*
X141902000Y-110782000D01*
D26*
%TO.N,LED_CTL*%
X136317500Y-97590000D02*
X136317500Y-100440000D01*
X136317500Y-100440000D02*
X137223500Y-101346000D01*
X137223500Y-101346000D02*
X146494500Y-101346000D01*
X146494500Y-101346000D02*
X147831800Y-102683300D01*
X147831800Y-102683300D02*
X147831800Y-109769400D01*
X147831800Y-109769400D02*
X147831800Y-110769400D01*
X136317500Y-97590000D02*
X136237501Y-97669999D01*
D25*
X150902000Y-110782000D02*
X147844400Y-110782000D01*
X147844400Y-110782000D02*
X147831800Y-110769400D01*
X155156000Y-110782000D02*
X151156000Y-110782000D01*
X158902000Y-110782000D02*
X154902000Y-110782000D01*
X163156000Y-110782000D02*
X159156000Y-110782000D01*
%TO.N,Net-(D2-Pad1)*%
X161156000Y-105282000D02*
X161156000Y-106082000D01*
X161156000Y-106082000D02*
X163156000Y-108082000D01*
X161156000Y-106082000D02*
X159156000Y-108082000D01*
%TO.N,Net-(D4-Pad1)*%
X153156000Y-105282000D02*
X153156000Y-106082000D01*
X153156000Y-106082000D02*
X155156000Y-108082000D01*
X153156000Y-106082000D02*
X151156000Y-108082000D01*
D27*
%TO.N,Net-(F1-Pad2)*%
X127222000Y-111633000D02*
X131174500Y-111633000D01*
D28*
%TO.N,/USB_D_2-*%
X109200000Y-97475000D02*
X110025001Y-97475000D01*
X110025001Y-97475000D02*
X110337491Y-97787490D01*
X110337491Y-97787490D02*
X110817565Y-97787490D01*
X110817565Y-97787490D02*
X111302575Y-98272500D01*
X111302575Y-98272500D02*
X117492499Y-98272500D01*
X117492499Y-98272500D02*
X117839999Y-97925000D01*
X117839999Y-97925000D02*
X118665000Y-97925000D01*
%TO.N,USB_D_3-*%
X131064332Y-100939500D02*
X132037500Y-99966332D01*
X132037500Y-99966332D02*
X132037500Y-98707501D01*
X132037500Y-98707501D02*
X131872500Y-98542501D01*
X131872500Y-98542501D02*
X131872500Y-97590000D01*
X127634668Y-100939500D02*
X131064332Y-100939500D01*
X124967668Y-98272500D02*
X127634668Y-100939500D01*
X122537501Y-98272500D02*
X124967668Y-98272500D01*
X121365000Y-97925000D02*
X122190001Y-97925000D01*
X122190001Y-97925000D02*
X122537501Y-98272500D01*
%TO.N,USB_D_3+*%
X132342500Y-98707501D02*
X132507500Y-98542501D01*
X131190668Y-101244500D02*
X132342500Y-100092668D01*
X132342500Y-100092668D02*
X132342500Y-98707501D01*
X132507500Y-98542501D02*
X132507500Y-97590000D01*
X127508332Y-101244500D02*
X131190668Y-101244500D01*
X124841332Y-98577500D02*
X127508332Y-101244500D01*
X122537501Y-98577500D02*
X124841332Y-98577500D01*
X122190001Y-98925000D02*
X122537501Y-98577500D01*
X121365000Y-98925000D02*
X122190001Y-98925000D01*
%TO.N,/USB_D_2+*%
X111302575Y-98577500D02*
X117492499Y-98577500D01*
X109200000Y-99375000D02*
X110025001Y-99375000D01*
X110025001Y-99375000D02*
X110337491Y-99062510D01*
X110817565Y-99062510D02*
X111302575Y-98577500D01*
X117839999Y-98925000D02*
X118665000Y-98925000D01*
X110337491Y-99062510D02*
X110817565Y-99062510D01*
X117492499Y-98577500D02*
X117839999Y-98925000D01*
%TO.N,/DM4_1+*%
X137587500Y-91457499D02*
X137587500Y-92410000D01*
X148192999Y-85961600D02*
X147845499Y-86309100D01*
X137752500Y-89158632D02*
X137752500Y-91292499D01*
X149018000Y-85961600D02*
X148192999Y-85961600D01*
X147845499Y-86309100D02*
X140602032Y-86309100D01*
X140602032Y-86309100D02*
X137752500Y-89158632D01*
X137752500Y-91292499D02*
X137587500Y-91457499D01*
%TO.N,/DM4_2+*%
X153713469Y-86309100D02*
X152890501Y-86309100D01*
X154787700Y-87383331D02*
X153713469Y-86309100D01*
X152890501Y-86309100D02*
X152543001Y-85961600D01*
X152543001Y-85961600D02*
X151718000Y-85961600D01*
X154787700Y-89344832D02*
X154787700Y-87383331D01*
X156323968Y-90881100D02*
X154787700Y-89344832D01*
X157620032Y-90881100D02*
X156323968Y-90881100D01*
X158343500Y-90157632D02*
X157620032Y-90881100D01*
X158343500Y-89334101D02*
X158343500Y-90157632D01*
X157546000Y-87711600D02*
X157546000Y-88536601D01*
X157546000Y-88536601D02*
X158343500Y-89334101D01*
%TO.N,/DM4_2-*%
X154482700Y-87509667D02*
X153587133Y-86614100D01*
X153587133Y-86614100D02*
X152890501Y-86614100D01*
X152890501Y-86614100D02*
X152543001Y-86961600D01*
X152543001Y-86961600D02*
X151718000Y-86961600D01*
X154482700Y-89471168D02*
X154482700Y-87509667D01*
X156197632Y-91186100D02*
X154482700Y-89471168D01*
X157746368Y-91186100D02*
X156197632Y-91186100D01*
X158648500Y-90283968D02*
X157746368Y-91186100D01*
X158648500Y-89334101D02*
X158648500Y-90283968D01*
X159446000Y-87711600D02*
X159446000Y-88536601D01*
X159446000Y-88536601D02*
X158648500Y-89334101D01*
%TO.N,/DM4_1-*%
X138057500Y-89284968D02*
X138057500Y-91292499D01*
X148192999Y-86961600D02*
X147845499Y-86614100D01*
X147845499Y-86614100D02*
X140728368Y-86614100D01*
X149018000Y-86961600D02*
X148192999Y-86961600D01*
X140728368Y-86614100D02*
X138057500Y-89284968D01*
X138057500Y-91292499D02*
X138222500Y-91457499D01*
X138222500Y-91457499D02*
X138222500Y-92410000D01*
%TO.N,/DM3_1-*%
X138086768Y-84480500D02*
X136787500Y-85779768D01*
X136787500Y-85779768D02*
X136787500Y-91292499D01*
X136787500Y-91292499D02*
X136952500Y-91457499D01*
X136952500Y-91457499D02*
X136952500Y-92410000D01*
X141597099Y-84480500D02*
X138086768Y-84480500D01*
X142769600Y-84828000D02*
X141944599Y-84828000D01*
X141944599Y-84828000D02*
X141597099Y-84480500D01*
%TO.N,/DM3_2-*%
X152374700Y-82206768D02*
X150100968Y-84480500D01*
X150100968Y-84480500D02*
X146642101Y-84480500D01*
X146642101Y-84480500D02*
X146294601Y-84828000D01*
X146294601Y-84828000D02*
X145469600Y-84828000D01*
X152374700Y-81089832D02*
X152374700Y-82206768D01*
X151447168Y-80162300D02*
X152374700Y-81089832D01*
X150344901Y-80162300D02*
X151447168Y-80162300D01*
X148722400Y-79364800D02*
X149547401Y-79364800D01*
X149547401Y-79364800D02*
X150344901Y-80162300D01*
%TO.N,/DM3_2+*%
X152069700Y-82080432D02*
X149974632Y-84175500D01*
X149974632Y-84175500D02*
X146642101Y-84175500D01*
X146642101Y-84175500D02*
X146294601Y-83828000D01*
X146294601Y-83828000D02*
X145469600Y-83828000D01*
X152069700Y-81216168D02*
X152069700Y-82080432D01*
X151320832Y-80467300D02*
X152069700Y-81216168D01*
X150344901Y-80467300D02*
X151320832Y-80467300D01*
X148722400Y-81264800D02*
X149547401Y-81264800D01*
X149547401Y-81264800D02*
X150344901Y-80467300D01*
%TO.N,/DM3_1+*%
X137960432Y-84175500D02*
X136482500Y-85653432D01*
X136482500Y-85653432D02*
X136482500Y-91292499D01*
X136482500Y-91292499D02*
X136317500Y-91457499D01*
X136317500Y-91457499D02*
X136317500Y-92410000D01*
X141597099Y-84175500D02*
X137960432Y-84175500D01*
X142769600Y-83828000D02*
X141944599Y-83828000D01*
X141944599Y-83828000D02*
X141597099Y-84175500D01*
%TO.N,/DM2_1+*%
X133286832Y-87833300D02*
X135212500Y-89758968D01*
X135212500Y-89758968D02*
X135212500Y-91292499D01*
X135212500Y-91292499D02*
X135047500Y-91457499D01*
X135047500Y-91457499D02*
X135047500Y-92410000D01*
X129264400Y-88180800D02*
X130089401Y-88180800D01*
X130089401Y-88180800D02*
X130436901Y-87833300D01*
X130436901Y-87833300D02*
X133286832Y-87833300D01*
%TO.N,/DM2_2+*%
X125391899Y-87833300D02*
X125739399Y-88180800D01*
X123698100Y-88455168D02*
X124319968Y-87833300D01*
X124319968Y-87833300D02*
X125391899Y-87833300D01*
X125739399Y-88180800D02*
X126564400Y-88180800D01*
X123698100Y-90334768D02*
X123698100Y-88455168D01*
X123049968Y-90982900D02*
X123698100Y-90334768D01*
X121806032Y-90982900D02*
X123049968Y-90982900D01*
X120345100Y-89521968D02*
X121806032Y-90982900D01*
X120345100Y-88622901D02*
X120345100Y-89521968D01*
X119547600Y-87000400D02*
X119547600Y-87825401D01*
X119547600Y-87825401D02*
X120345100Y-88622901D01*
%TO.N,/DM2_2-*%
X123393100Y-88328832D02*
X124193632Y-87528300D01*
X125739399Y-87180800D02*
X126564400Y-87180800D01*
X124193632Y-87528300D02*
X125391899Y-87528300D01*
X125391899Y-87528300D02*
X125739399Y-87180800D01*
X123393100Y-90208432D02*
X123393100Y-88328832D01*
X122923632Y-90677900D02*
X123393100Y-90208432D01*
X121932368Y-90677900D02*
X122923632Y-90677900D01*
X120650100Y-89395632D02*
X121932368Y-90677900D01*
X120650100Y-88622901D02*
X120650100Y-89395632D01*
X121447600Y-87000400D02*
X121447600Y-87825401D01*
X121447600Y-87825401D02*
X120650100Y-88622901D01*
%TO.N,/DM2_1-*%
X133413168Y-87528300D02*
X135517500Y-89632632D01*
X135517500Y-89632632D02*
X135517500Y-91292499D01*
X135517500Y-91292499D02*
X135682500Y-91457499D01*
X135682500Y-91457499D02*
X135682500Y-92410000D01*
X129264400Y-87180800D02*
X130089401Y-87180800D01*
X130089401Y-87180800D02*
X130436901Y-87528300D01*
X130436901Y-87528300D02*
X133413168Y-87528300D01*
%TO.N,/DM1_1-*%
X133006768Y-89052300D02*
X134247500Y-90293032D01*
X134247500Y-90293032D02*
X134247500Y-91292499D01*
X134247500Y-91292499D02*
X134412500Y-91457499D01*
X134412500Y-91457499D02*
X134412500Y-92410000D01*
X127394032Y-89052300D02*
X133006768Y-89052300D01*
X124041232Y-92405100D02*
X127394032Y-89052300D01*
X108694501Y-92405100D02*
X124041232Y-92405100D01*
X107522000Y-92057600D02*
X108347001Y-92057600D01*
X108347001Y-92057600D02*
X108694501Y-92405100D01*
%TO.N,/DM1_2-*%
X102448400Y-88930800D02*
X102448400Y-89755801D01*
X102448400Y-89755801D02*
X101650900Y-90553301D01*
X101650900Y-90553301D02*
X101650900Y-90881300D01*
X101650900Y-90881300D02*
X103174700Y-92405100D01*
X103174700Y-92405100D02*
X103649499Y-92405100D01*
X103649499Y-92405100D02*
X103996999Y-92057600D01*
X103996999Y-92057600D02*
X104822000Y-92057600D01*
%TO.N,/DM1_2+*%
X101345900Y-91045968D02*
X103010032Y-92710100D01*
X103010032Y-92710100D02*
X103649499Y-92710100D01*
X103649499Y-92710100D02*
X103996999Y-93057600D01*
X103996999Y-93057600D02*
X104822000Y-93057600D01*
X100548400Y-88930800D02*
X100548400Y-89755801D01*
X100548400Y-89755801D02*
X101345900Y-90553301D01*
X101345900Y-90553301D02*
X101345900Y-91045968D01*
%TO.N,/DM1_1+*%
X133942500Y-90419368D02*
X133942500Y-91292499D01*
X132880432Y-89357300D02*
X133942500Y-90419368D01*
X133942500Y-91292499D02*
X133777500Y-91457499D01*
X133777500Y-91457499D02*
X133777500Y-92410000D01*
X127520368Y-89357300D02*
X132880432Y-89357300D01*
X124167568Y-92710100D02*
X127520368Y-89357300D01*
X108694501Y-92710100D02*
X124167568Y-92710100D01*
X107522000Y-93057600D02*
X108347001Y-93057600D01*
X108347001Y-93057600D02*
X108694501Y-92710100D01*
X133777500Y-92206336D02*
X133777500Y-92410000D01*
D26*
%TO.N,OSC1_out*%
X139492500Y-93395000D02*
X139844989Y-93747489D01*
X139492500Y-92410000D02*
X139492500Y-93395000D01*
X143771500Y-92590000D02*
X145171500Y-92590000D01*
X142614011Y-93747489D02*
X143771500Y-92590000D01*
X139844989Y-93747489D02*
X142614011Y-93747489D01*
%TO.N,OSC1_in*%
X151892000Y-94170500D02*
X151892000Y-91249500D01*
X151765000Y-94297500D02*
X151892000Y-94170500D01*
X138938000Y-94297500D02*
X151765000Y-94297500D01*
X138857500Y-92410000D02*
X138857500Y-94217000D01*
X151892000Y-91249500D02*
X150932500Y-90290000D01*
X138857500Y-94217000D02*
X138938000Y-94297500D01*
X150932500Y-90290000D02*
X148071500Y-90290000D01*
%TO.N,Net-(IC1-Pad14)*%
X130302000Y-93980000D02*
X130757500Y-93980000D01*
X130757500Y-93980000D02*
X131872500Y-92865000D01*
X131872500Y-92865000D02*
X131872500Y-92410000D01*
X130280400Y-93958400D02*
X130302000Y-93980000D01*
D27*
X117043200Y-93958400D02*
X130280400Y-93958400D01*
D26*
%TO.N,Net-(IC1-Pad17)*%
X130302000Y-103933000D02*
X125840500Y-103933000D01*
X125840500Y-103933000D02*
X124269500Y-102362000D01*
X131842500Y-103933000D02*
X133142500Y-102633000D01*
X133142500Y-102633000D02*
X133142500Y-97590000D01*
X130302000Y-103933000D02*
X131842500Y-103933000D01*
%TO.N,Net-(IC1-Pad19)*%
X132232400Y-95250000D02*
X133858000Y-95250000D01*
X133858000Y-95250000D02*
X134412500Y-95804500D01*
X134412500Y-95804500D02*
X134412500Y-97590000D01*
D27*
X131470400Y-95250000D02*
X132232400Y-95250000D01*
X130454400Y-96266000D02*
X131470400Y-95250000D01*
X129844800Y-96266000D02*
X130454400Y-96266000D01*
X114959200Y-96266000D02*
X129844800Y-96266000D01*
X114350800Y-93907600D02*
X114350800Y-95657600D01*
X114350800Y-95657600D02*
X114959200Y-96266000D01*
D26*
%TO.N,LED1*%
X136952500Y-97590000D02*
X136952500Y-95965500D01*
X136952500Y-95965500D02*
X137477500Y-95440500D01*
X137477500Y-95440500D02*
X159956500Y-95440500D01*
X159956500Y-95440500D02*
X161156000Y-96640000D01*
X161156000Y-96640000D02*
X161156000Y-102582000D01*
X136952500Y-97590000D02*
X136969500Y-97607000D01*
%TO.N,LED2*%
X137587500Y-97590000D02*
X137587500Y-96410000D01*
X137587500Y-96410000D02*
X137795000Y-96202500D01*
X153156000Y-97403000D02*
X153156000Y-102582000D01*
X137795000Y-96202500D02*
X151955500Y-96202500D01*
X151955500Y-96202500D02*
X153156000Y-97403000D01*
X137587500Y-97590000D02*
X137604500Y-97607000D01*
%TO.N,OVC*%
X138857500Y-100452700D02*
X138887200Y-100482400D01*
X138857500Y-97590000D02*
X138857500Y-100452700D01*
D27*
X138587201Y-110383599D02*
X138887200Y-110083600D01*
X137337800Y-111633000D02*
X138587201Y-110383599D01*
X133874500Y-111633000D02*
X137337800Y-111633000D01*
D26*
X133874500Y-111633000D02*
X133874500Y-109521000D01*
X133874500Y-109521000D02*
X135255000Y-108140500D01*
D28*
%TO.N,/USB_D_1-*%
X100057668Y-96286000D02*
X102044168Y-98272500D01*
X102044168Y-98272500D02*
X104533925Y-98272500D01*
X104533925Y-98272500D02*
X105018935Y-97787490D01*
X105018935Y-97787490D02*
X105562509Y-97787490D01*
X105562509Y-97787490D02*
X105874999Y-97475000D01*
X105874999Y-97475000D02*
X106700000Y-97475000D01*
X96975500Y-96286000D02*
X100057668Y-96286000D01*
X96975500Y-96286000D02*
X97541168Y-96286000D01*
%TO.N,/USB_D_1+*%
X99931332Y-96591000D02*
X101917832Y-98577500D01*
X105874999Y-99375000D02*
X106700000Y-99375000D01*
X101917832Y-98577500D02*
X104533925Y-98577500D01*
X104533925Y-98577500D02*
X105018935Y-99062510D01*
X105018935Y-99062510D02*
X105562509Y-99062510D01*
X105562509Y-99062510D02*
X105874999Y-99375000D01*
X95280500Y-96591000D02*
X95781998Y-96591000D01*
X95781998Y-96591000D02*
X96489499Y-97298501D01*
X96489499Y-97298501D02*
X97461501Y-97298501D01*
X97461501Y-97298501D02*
X98169002Y-96591000D01*
X98169002Y-96591000D02*
X99931332Y-96591000D01*
X94975500Y-96286000D02*
X95280500Y-96591000D01*
X94975500Y-96286000D02*
X95280500Y-95981000D01*
%TO.N,/DM4_3+*%
X157500000Y-75700000D02*
X158347500Y-76547500D01*
X158343500Y-80161101D02*
X158343500Y-83589099D01*
X157546000Y-84386599D02*
X157546000Y-85211600D01*
X158347500Y-76547500D02*
X158347500Y-80157101D01*
X158347500Y-80157101D02*
X158343500Y-80161101D01*
X158343500Y-83589099D02*
X157546000Y-84386599D01*
%TO.N,/DM4_3-*%
X158648500Y-80287437D02*
X158648500Y-83589099D01*
X159500000Y-75700000D02*
X158652500Y-76547500D01*
X158652500Y-76547500D02*
X158652500Y-80283437D01*
X158652500Y-80283437D02*
X158648500Y-80287437D01*
X158648500Y-83589099D02*
X159446000Y-84386599D01*
X159446000Y-84386599D02*
X159446000Y-85211600D01*
%TO.N,/DM3_3-*%
X139652500Y-78984832D02*
X140829968Y-80162300D01*
X140829968Y-80162300D02*
X144599899Y-80162300D01*
X144599899Y-80162300D02*
X145397399Y-79364800D01*
X145397399Y-79364800D02*
X146222400Y-79364800D01*
X139652500Y-76547500D02*
X139652500Y-78984832D01*
X140500000Y-75700000D02*
X139652500Y-76547500D01*
%TO.N,/DM3_3+*%
X139347500Y-79111168D02*
X140703632Y-80467300D01*
X140703632Y-80467300D02*
X144599899Y-80467300D01*
X144599899Y-80467300D02*
X145397399Y-81264800D01*
X145397399Y-81264800D02*
X146222400Y-81264800D01*
X139347500Y-76547500D02*
X139347500Y-79111168D01*
X138500000Y-75700000D02*
X139347500Y-76547500D01*
%TO.N,/DM2_3+*%
X120347500Y-76547500D02*
X120347500Y-79455055D01*
X119500000Y-75700000D02*
X120347500Y-76547500D01*
X120347500Y-79455055D02*
X120345100Y-79457455D01*
X120345100Y-79457455D02*
X120345100Y-82877899D01*
X120345100Y-82877899D02*
X119547600Y-83675399D01*
X119547600Y-83675399D02*
X119547600Y-84500400D01*
%TO.N,/DM2_3-*%
X120652500Y-79581391D02*
X120650100Y-79583791D01*
X120650100Y-79583791D02*
X120650100Y-82877899D01*
X121500000Y-75700000D02*
X120652500Y-76547500D01*
X120652500Y-76547500D02*
X120652500Y-79581391D01*
X120650100Y-82877899D02*
X121447600Y-83675399D01*
X121447600Y-83675399D02*
X121447600Y-84500400D01*
%TO.N,/DM1_3-*%
X101650900Y-80377968D02*
X101650900Y-83613099D01*
X102448400Y-85605799D02*
X102448400Y-86430800D01*
X101652500Y-80376368D02*
X101650900Y-80377968D01*
X102500000Y-75700000D02*
X101652500Y-76547500D01*
X101652500Y-76547500D02*
X101652500Y-80376368D01*
X101768401Y-83613099D02*
X102060901Y-83905599D01*
X101650900Y-83613099D02*
X101768401Y-83613099D01*
X102060901Y-83905599D02*
X102060901Y-85218300D01*
X102060901Y-85218300D02*
X102448400Y-85605799D01*
%TO.N,/DM1_3+*%
X101345900Y-83613099D02*
X101228399Y-83613099D01*
X100935899Y-85218300D02*
X100548400Y-85605799D01*
X100935899Y-83905599D02*
X100935899Y-85218300D01*
X101347500Y-80250032D02*
X101345900Y-80251632D01*
X100500000Y-75700000D02*
X101347500Y-76547500D01*
X101347500Y-76547500D02*
X101347500Y-80250032D01*
X101345900Y-80251632D02*
X101345900Y-83613099D01*
X100548400Y-85605799D02*
X100548400Y-86430800D01*
X101228399Y-83613099D02*
X100935899Y-83905599D01*
%TD*%
M02*
