M48
;DRILL file {KiCad (2017-10-23 revision a562525)-master} date Saturday, 11. November 2017 'u42' 10:42:23
;FORMAT={-:-/ absolute / metric / decimal}
FMAT,2
METRIC,TZ
T1C0.400
T2C0.600
T3C0.920
T4C2.300
T5C3.200
%
G90
G05
M71
T1
X99.517Y-87.63
X100.457Y-101.155
X101.498Y-84.176
X105.283Y-98.425
X107.124Y-105.283
X110.553Y-98.425
X114.681Y-107.061
X138.887Y-100.482
X138.887Y-110.084
X140.906Y-90.297
X141.922Y-105.918
X150.558Y-92.583
T2
X106.731Y-102.057
X116.332Y-110.49
X118.262Y-84.633
X128.473Y-106.629
X136.449Y-102.514
X142.951Y-78.105
X147.574Y-82.931
X160.706Y-85.42
X161.163Y-87.376
T3
X136.Y-75.7
X138.5Y-75.7
X140.5Y-75.7
X143.Y-75.7
X94.975Y-96.286
X94.975Y-98.806
X96.975Y-96.286
X96.975Y-98.786
X117.Y-75.7
X119.5Y-75.7
X121.5Y-75.7
X124.Y-75.7
X98.Y-75.7
X155.Y-75.7
X157.5Y-75.7
X159.5Y-75.7
X162.Y-75.7
X100.5Y-75.7
X102.5Y-75.7
X105.Y-75.7
T4
X92.265Y-91.516
X92.265Y-103.556
X113.93Y-73.
X127.07Y-73.
X151.93Y-73.
X94.93Y-73.
X132.93Y-73.
X146.07Y-73.
X108.07Y-73.
X165.07Y-73.
T5
X171.Y-69.
X89.Y-69.
X171.Y-111.
X89.Y-111.
T0
M30
