%TF.GenerationSoftware,KiCad,Pcbnew,(2017-10-23 revision a562525)-master*%
%TF.CreationDate,2017-11-11T10:42:01+01:00*%
%TF.ProjectId,USB-Hub V2.0,5553422D4875622056322E302E6B6963,a*%
%TF.SameCoordinates,Original*%
%TF.FileFunction,Soldermask,Top*%
%TF.FilePolarity,Negative*%
%FSLAX46Y46*%
G04 Gerber Fmt 4.6, Leading zero omitted, Abs format (unit mm)*
G04 Created by KiCad (PCBNEW (2017-10-23 revision a562525)-master) date Saturday, 11. November 2017 'u42' 10:42:01*
%MOMM*%
%LPD*%
G01*
G04 APERTURE LIST*
%ADD10R,0.760000X1.670000*%
%ADD11C,1.900000*%
%ADD12C,4.400000*%
%ADD13C,1.924000*%
%ADD14R,1.900000X1.700000*%
%ADD15R,1.700000X1.900000*%
%ADD16R,2.400000X2.100000*%
%ADD17R,1.500000X1.000000*%
%ADD18C,6.800000*%
%ADD19R,1.200000X1.300000*%
%ADD20C,3.400000*%
%ADD21R,1.000000X1.500000*%
%ADD22R,2.500000X2.200000*%
G04 APERTURE END LIST*
D10*
%TO.C,IC1*%
X140127500Y-92410000D03*
X139492500Y-92410000D03*
X138857500Y-92410000D03*
X138222500Y-92410000D03*
X137587500Y-92410000D03*
X136952500Y-92410000D03*
X136317500Y-92410000D03*
X135682500Y-92410000D03*
X135047500Y-92410000D03*
X134412500Y-92410000D03*
X133777500Y-92410000D03*
X133142500Y-92410000D03*
X132507500Y-92410000D03*
X131872500Y-92410000D03*
X131872500Y-97590000D03*
X132507500Y-97590000D03*
X133142500Y-97590000D03*
X133777500Y-97590000D03*
X134412500Y-97590000D03*
X135047500Y-97590000D03*
X135682500Y-97590000D03*
X136317500Y-97590000D03*
X136952500Y-97590000D03*
X137587500Y-97590000D03*
X138222500Y-97590000D03*
X138857500Y-97590000D03*
X139492500Y-97590000D03*
X140127500Y-97590000D03*
%TD*%
D11*
%TO.C,J1*%
X96975500Y-98786000D03*
X96975500Y-96286000D03*
X94975500Y-98806000D03*
X94975500Y-96286000D03*
D12*
X92265500Y-103556000D03*
X92265500Y-91516000D03*
%TD*%
%TO.C,J6*%
X165070000Y-73000000D03*
X151930000Y-73000000D03*
D13*
X162000000Y-75700000D03*
X159500000Y-75700000D03*
X157500000Y-75700000D03*
X155000000Y-75700000D03*
%TD*%
D12*
%TO.C,J7*%
X146070000Y-73000000D03*
X132930000Y-73000000D03*
D13*
X143000000Y-75700000D03*
X140500000Y-75700000D03*
X138500000Y-75700000D03*
X136000000Y-75700000D03*
%TD*%
D12*
%TO.C,J8*%
X127070000Y-73000000D03*
X113930000Y-73000000D03*
D13*
X124000000Y-75700000D03*
X121500000Y-75700000D03*
X119500000Y-75700000D03*
X117000000Y-75700000D03*
%TD*%
D12*
%TO.C,J9*%
X108070000Y-73000000D03*
X94930000Y-73000000D03*
D13*
X105000000Y-75700000D03*
X102500000Y-75700000D03*
X100500000Y-75700000D03*
X98000000Y-75700000D03*
%TD*%
D14*
%TO.C,C1*%
X103140500Y-106553000D03*
X100440500Y-106553000D03*
%TD*%
D15*
%TO.C,C2*%
X108521500Y-111586000D03*
X108521500Y-108886000D03*
%TD*%
D14*
%TO.C,C3*%
X109013000Y-105283000D03*
X111713000Y-105283000D03*
%TD*%
%TO.C,C4*%
X118334800Y-109321600D03*
X121034800Y-109321600D03*
%TD*%
%TO.C,C5*%
X118334800Y-107137200D03*
X121034800Y-107137200D03*
%TD*%
D16*
%TO.C,F1*%
X127222000Y-111633000D03*
X123222000Y-111633000D03*
%TD*%
D17*
%TO.C,FL1*%
X118665000Y-98925000D03*
X121365000Y-98925000D03*
X121365000Y-97925000D03*
X118665000Y-97925000D03*
%TD*%
%TO.C,FL2*%
X149018000Y-86961600D03*
X151718000Y-86961600D03*
X151718000Y-85961600D03*
X149018000Y-85961600D03*
%TD*%
%TO.C,FL3*%
X142769600Y-83828000D03*
X145469600Y-83828000D03*
X145469600Y-84828000D03*
X142769600Y-84828000D03*
%TD*%
%TO.C,FL4*%
X129264400Y-87180800D03*
X126564400Y-87180800D03*
X126564400Y-88180800D03*
X129264400Y-88180800D03*
%TD*%
%TO.C,FL5*%
X107522000Y-93057600D03*
X104822000Y-93057600D03*
X104822000Y-92057600D03*
X107522000Y-92057600D03*
%TD*%
D18*
%TO.C,J2*%
X171000000Y-69000000D03*
%TD*%
%TO.C,J3*%
X89000000Y-69000000D03*
%TD*%
%TO.C,J4*%
X171000000Y-111000000D03*
%TD*%
%TO.C,J5*%
X89000000Y-111000000D03*
%TD*%
D19*
%TO.C,Q1*%
X101790500Y-111617000D03*
X100840500Y-109617000D03*
X102740500Y-109617000D03*
%TD*%
D15*
%TO.C,R1*%
X161156000Y-102582000D03*
X161156000Y-105282000D03*
%TD*%
%TO.C,R2*%
X153156000Y-105282000D03*
X153156000Y-102582000D03*
%TD*%
D14*
%TO.C,R3*%
X147831800Y-110769400D03*
X145131800Y-110769400D03*
%TD*%
%TO.C,R4*%
X103140500Y-103251000D03*
X100440500Y-103251000D03*
%TD*%
D15*
%TO.C,R5*%
X112014000Y-108886000D03*
X112014000Y-111586000D03*
%TD*%
D14*
%TO.C,R6*%
X131174500Y-111633000D03*
X133874500Y-111633000D03*
%TD*%
%TO.C,R7*%
X109013000Y-102044500D03*
X111713000Y-102044500D03*
%TD*%
D15*
%TO.C,R8*%
X130302000Y-103933000D03*
X130302000Y-106633000D03*
%TD*%
%TO.C,R9*%
X114350800Y-91207600D03*
X114350800Y-93907600D03*
%TD*%
%TO.C,R10*%
X117043200Y-93907600D03*
X117043200Y-91207600D03*
%TD*%
D20*
%TO.C,TP1*%
X94996000Y-111569500D03*
%TD*%
%TO.C,TP2*%
X136042400Y-108458000D03*
%TD*%
%TO.C,TP3*%
X89865200Y-84683600D03*
%TD*%
%TO.C,TP4*%
X144373600Y-103682800D03*
%TD*%
%TO.C,TP5*%
X124269500Y-102362000D03*
%TD*%
D17*
%TO.C,U1*%
X109200000Y-97475000D03*
X109200000Y-98425000D03*
X109200000Y-99375000D03*
X106700000Y-99375000D03*
X106700000Y-98425000D03*
X106700000Y-97475000D03*
%TD*%
D21*
%TO.C,U2*%
X157546000Y-87711600D03*
X158496000Y-87711600D03*
X159446000Y-87711600D03*
X159446000Y-85211600D03*
X158496000Y-85211600D03*
X157546000Y-85211600D03*
%TD*%
D17*
%TO.C,U3*%
X148722400Y-81264800D03*
X148722400Y-80314800D03*
X148722400Y-79364800D03*
X146222400Y-79364800D03*
X146222400Y-80314800D03*
X146222400Y-81264800D03*
%TD*%
D21*
%TO.C,U4*%
X119547600Y-84500400D03*
X120497600Y-84500400D03*
X121447600Y-84500400D03*
X121447600Y-87000400D03*
X120497600Y-87000400D03*
X119547600Y-87000400D03*
%TD*%
%TO.C,U5*%
X100548400Y-88930800D03*
X101498400Y-88930800D03*
X102448400Y-88930800D03*
X102448400Y-86430800D03*
X101498400Y-86430800D03*
X100548400Y-86430800D03*
%TD*%
D22*
%TO.C,Y1*%
X148071500Y-92590000D03*
X145171500Y-92590000D03*
X145171500Y-90290000D03*
X148071500Y-90290000D03*
%TD*%
D15*
%TO.C,D1*%
X141902000Y-110845500D03*
X141902000Y-108145500D03*
%TD*%
%TO.C,D2*%
X159156000Y-110845500D03*
X159156000Y-108145500D03*
%TD*%
%TO.C,D3*%
X163156000Y-110845500D03*
X163156000Y-108145500D03*
%TD*%
%TO.C,D4*%
X155156000Y-110874500D03*
X155156000Y-108174500D03*
%TD*%
%TO.C,D5*%
X151156000Y-110845500D03*
X151156000Y-108145500D03*
%TD*%
M02*
