%TF.GenerationSoftware,KiCad,Pcbnew,(2017-10-23 revision a562525)-master*%
%TF.CreationDate,2017-11-11T10:42:01+01:00*%
%TF.ProjectId,USB-Hub V2.0,5553422D4875622056322E302E6B6963,a*%
%TF.SameCoordinates,Original*%
%TF.FileFunction,Soldermask,Bot*%
%TF.FilePolarity,Negative*%
%FSLAX46Y46*%
G04 Gerber Fmt 4.6, Leading zero omitted, Abs format (unit mm)*
G04 Created by KiCad (PCBNEW (2017-10-23 revision a562525)-master) date Saturday, 11. November 2017 'u42' 10:42:01*
%MOMM*%
%LPD*%
G01*
G04 APERTURE LIST*
%ADD10C,1.900000*%
%ADD11C,4.400000*%
%ADD12C,1.924000*%
%ADD13R,1.900000X1.700000*%
%ADD14R,1.700000X1.900000*%
%ADD15C,6.800000*%
G04 APERTURE END LIST*
D10*
%TO.C,J1*%
X96975500Y-98786000D03*
X96975500Y-96286000D03*
X94975500Y-98806000D03*
X94975500Y-96286000D03*
D11*
X92265500Y-103556000D03*
X92265500Y-91516000D03*
%TD*%
%TO.C,J6*%
X165070000Y-73000000D03*
X151930000Y-73000000D03*
D12*
X162000000Y-75700000D03*
X159500000Y-75700000D03*
X157500000Y-75700000D03*
X155000000Y-75700000D03*
%TD*%
D11*
%TO.C,J7*%
X146070000Y-73000000D03*
X132930000Y-73000000D03*
D12*
X143000000Y-75700000D03*
X140500000Y-75700000D03*
X138500000Y-75700000D03*
X136000000Y-75700000D03*
%TD*%
D11*
%TO.C,J8*%
X127070000Y-73000000D03*
X113930000Y-73000000D03*
D12*
X124000000Y-75700000D03*
X121500000Y-75700000D03*
X119500000Y-75700000D03*
X117000000Y-75700000D03*
%TD*%
D11*
%TO.C,J9*%
X108070000Y-73000000D03*
X94930000Y-73000000D03*
D12*
X105000000Y-75700000D03*
X102500000Y-75700000D03*
X100500000Y-75700000D03*
X98000000Y-75700000D03*
%TD*%
D13*
%TO.C,C6*%
X163750000Y-85394800D03*
X166450000Y-85394800D03*
%TD*%
D14*
%TO.C,C7*%
X133629400Y-82553800D03*
X133629400Y-79853800D03*
%TD*%
%TO.C,C8*%
X118262400Y-79422000D03*
X118262400Y-82122000D03*
%TD*%
D13*
%TO.C,C9*%
X95678000Y-84175600D03*
X98378000Y-84175600D03*
%TD*%
%TO.C,C10*%
X166450000Y-79806800D03*
X163750000Y-79806800D03*
%TD*%
%TO.C,C11*%
X138967200Y-79832200D03*
X136267200Y-79832200D03*
%TD*%
D14*
%TO.C,C12*%
X128016000Y-82223600D03*
X128016000Y-79523600D03*
%TD*%
%TO.C,C13*%
X108813600Y-78660000D03*
X108813600Y-81360000D03*
%TD*%
D15*
%TO.C,J2*%
X171000000Y-69000000D03*
%TD*%
%TO.C,J3*%
X89000000Y-69000000D03*
%TD*%
%TO.C,J4*%
X171000000Y-111000000D03*
%TD*%
%TO.C,J5*%
X89000000Y-111000000D03*
%TD*%
D14*
%TO.C,L1*%
X160324800Y-82477600D03*
X160324800Y-79777600D03*
%TD*%
D13*
%TO.C,L2*%
X136267200Y-82575400D03*
X138967200Y-82575400D03*
%TD*%
%TO.C,L3*%
X124794000Y-82194400D03*
X122094000Y-82194400D03*
%TD*%
%TO.C,L4*%
X108792000Y-84175600D03*
X106092000Y-84175600D03*
%TD*%
M02*
